PathFileType	4	(X/Y/Z)
DataRate	CameraRate	NumFrames	NumMarkers	Units	OrigDataRate	OrigDataStartFrame	OrigNumFrames	
	120.0	120.0	7	39	mm	120.0	29	231
Frame#	Time	midhip	hip_r	hip_l	knee_r	knee_l	ankle_r	ankle_l	midasis	asis_r	asis_l	psis_r	psis_l	epicondLat_r	epicondLat_l	epicondMed_r	epicondMed_l	malleolusLat_r	malleolusLat_l	malleolusMedv_r	malleolusMedv_l	heel_r	heel_l	sternalnotch	xyphoidprocess	neck	subclavicle_r	subclavicle_l	toe_r	toe_l	thighwand_r	thighwand_l	upperleg1_r	upperleg1_l	upperleg2_r	upperleg2_l	shankwand_r	shankwand_l	lowerleg1_r	lowerleg1_l
	X1	Y1	Z1	X2	Y2	Z2	X3	Y3	Z3	X4	Y4	Z4	X5	Y5	Z5	X6	Y6	Z6	X7	Y7	Z7	X8	Y8	Z8	X9	Y9	Z9	X10	Y10	Z10	X11	Y11	Z11	X12	Y12	Z12	X13	Y13	Z13	X14	Y14	Z14	X15	Y15	Z15	X16	Y16	Z16	X17	Y17	Z17	X18	Y18	Z18	X19	Y19	Z19	X20	Y20	Z20	X21	Y21	Z21	X22	Y22	Z22	X23	Y23	Z23	X24	Y24	Z24	X25	Y25	Z25	X26	Y26	Z26	X27	Y27	Z27	X28	Y28	Z28	X29	Y29	Z29	X30	Y30	Z30	X31	Y31	Z31	X32	Y32	Z32	X33	Y33	Z33	X34	Y34	Z34	X35	Y35	Z35	X36	Y36	Z36	X37	Y37	Z37	X38	Y38	Z38	X39	Y39	Z39

	29	0.24167	1362.078	701.250	-227.731	1359.819	703.629	-164.902	1364.336	698.871	-290.559	1340.844	374.217	-139.544	1342.034	378.042	-308.460	1355.509	57.413	-109.576	1336.478	59.263	-343.712	1437.535	752.777	-226.970	1434.183	756.309	-133.694	1440.888	749.245	-320.245	1300.507	816.229	-214.293	1299.904	809.245	-269.249	1338.822	378.205	-89.243	1341.875	380.839	-358.381	1337.578	375.660	-189.404	1343.303	366.382	-255.126	1345.481	59.963	-77.714	1330.472	63.100	-377.468	1351.964	65.210	-137.309	1332.748	60.288	-313.887	1299.916	39.035	-112.539	1283.321	40.902	-338.632	1398.491	1115.103	-244.254	1452.749	981.447	-239.911	1322.771	1148.958	-245.612	1397.187	1127.732	-183.980	1403.561	1127.146	-299.286	1451.470	40.011	-99.218	1432.159	38.595	-357.482	1342.723	485.131	-21.125	1478.347	475.570	-335.127	1382.567	538.106	-91.830	1414.125	529.922	-274.195	1386.940	453.575	-99.041	1397.327	443.769	-275.122	1317.418	168.201	-15.239	1420.979	163.035	-371.909	1329.860	219.385	-79.037	1360.802	216.431	-344.206
	30	0.25000	1362.093	701.228	-227.739	1359.824	703.607	-164.911	1364.363	698.850	-290.568	1340.827	374.221	-139.538	1342.017	378.054	-308.457	1355.486	57.430	-109.575	1336.477	59.268	-343.695	1437.535	752.779	-226.966	1434.165	756.311	-133.679	1440.904	749.248	-320.252	1300.207	816.275	-214.380	1299.868	809.248	-269.247	1338.807	378.212	-89.237	1341.861	380.849	-358.379	1337.611	375.686	-189.409	1343.284	366.393	-255.033	1345.459	59.979	-77.712	1330.474	63.103	-377.451	1351.969	65.236	-137.272	1332.755	60.299	-313.868	1299.908	39.029	-112.536	1283.321	40.901	-338.632	1398.438	1115.108	-244.174	1452.640	981.431	-239.776	1322.748	1148.989	-245.598	1397.118	1127.755	-183.883	1403.532	1127.134	-299.228	1451.476	40.034	-99.217	1432.153	38.607	-357.472	1342.703	485.150	-21.133	1478.345	475.592	-335.114	1382.560	538.135	-91.798	1414.107	529.916	-274.127	1386.940	453.579	-99.020	1397.307	443.788	-275.049	1317.401	168.208	-15.234	1420.990	163.029	-371.891	1329.863	219.408	-79.001	1360.799	216.386	-344.140
	31	0.25833	1362.133	701.185	-227.757	1359.841	703.566	-164.930	1364.425	698.805	-290.585	1340.804	374.231	-139.531	1342.001	378.063	-308.452	1355.451	57.446	-109.571	1336.474	59.278	-343.681	1437.542	752.783	-226.961	1434.138	756.318	-133.661	1440.945	749.248	-320.262	1299.635	816.355	-214.554	1299.827	809.247	-269.243	1338.782	378.227	-89.230	1341.846	380.855	-358.374	1337.628	375.696	-189.429	1343.317	366.394	-255.072	1345.423	59.996	-77.709	1330.472	63.113	-377.438	1351.967	65.254	-137.281	1332.759	60.297	-313.862	1299.902	39.020	-112.531	1283.324	40.891	-338.628	1398.401	1115.135	-244.187	1452.590	981.454	-239.745	1322.727	1149.018	-245.582	1397.034	1127.782	-183.895	1403.540	1127.161	-299.240	1451.472	40.053	-99.206	1432.148	38.620	-357.463	1342.676	485.161	-21.137	1478.342	475.614	-335.099	1382.551	538.157	-91.808	1414.100	529.943	-274.153	1386.937	453.581	-99.031	1397.323	443.798	-275.075	1317.399	168.206	-15.230	1420.989	163.025	-371.874	1329.862	219.416	-79.012	1360.794	216.386	-344.143
	32	0.26667	1362.181	701.137	-227.788	1359.860	703.521	-164.961	1364.502	698.753	-290.614	1340.776	374.241	-139.527	1341.985	378.068	-308.451	1355.397	57.459	-109.569	1336.466	59.291	-343.675	1437.553	752.788	-226.963	1434.106	756.329	-133.645	1441.000	749.248	-320.281	1299.026	816.436	-214.738	1299.781	809.242	-269.238	1338.750	378.244	-89.227	1341.828	380.856	-358.373	1337.676	375.693	-189.450	1343.340	366.390	-255.160	1345.367	60.010	-77.708	1330.463	63.125	-377.432	1351.960	65.260	-137.305	1332.739	60.295	-313.863	1299.900	39.010	-112.525	1283.329	40.874	-338.624	1398.458	1115.194	-244.205	1452.763	981.560	-239.777	1322.714	1149.024	-245.559	1397.127	1127.853	-183.936	1403.543	1127.213	-299.243	1451.460	40.064	-99.193	1432.145	38.631	-357.458	1342.640	485.164	-21.142	1478.334	475.635	-335.091	1382.490	538.173	-91.813	1414.091	529.956	-274.204	1386.930	453.604	-99.043	1397.336	443.808	-275.136	1317.407	168.196	-15.231	1420.977	163.025	-371.867	1329.844	219.413	-79.027	1360.800	216.419	-344.176
	33	0.27500	1362.225	701.097	-227.831	1359.873	703.485	-165.006	1364.577	698.709	-290.656	1340.746	374.245	-139.528	1341.967	378.073	-308.457	1355.350	57.467	-109.569	1336.451	59.305	-343.683	1437.565	752.795	-226.976	1434.070	756.343	-133.637	1441.059	749.248	-320.314	1298.570	816.490	-214.874	1299.733	809.232	-269.233	1338.715	378.255	-89.229	1341.807	380.856	-358.379	1337.667	375.711	-189.446	1343.343	366.407	-255.142	1345.316	60.017	-77.709	1330.446	63.139	-377.440	1351.931	65.250	-137.287	1332.696	60.305	-313.861	1299.904	39.002	-112.519	1283.334	40.852	-338.622	1398.478	1115.248	-244.169	1452.901	981.661	-239.762	1322.700	1149.014	-245.520	1397.179	1127.914	-183.901	1403.514	1127.264	-299.213	1451.443	40.067	-99.185	1432.140	38.640	-357.459	1342.591	485.163	-21.147	1478.318	475.653	-335.099	1382.382	538.193	-91.781	1414.083	529.975	-274.194	1386.877	453.643	-99.027	1397.332	443.831	-275.127	1317.416	168.183	-15.237	1420.960	163.031	-371.874	1329.802	219.414	-79.006	1360.815	216.454	-344.171
	34	0.28333	1362.247	701.076	-227.868	1359.869	703.468	-165.044	1364.625	698.684	-290.692	1340.716	374.242	-139.531	1341.948	378.076	-308.465	1355.323	57.467	-109.568	1336.431	59.319	-343.702	1437.567	752.803	-226.987	1434.033	756.358	-133.629	1441.100	749.249	-320.344	1298.378	816.502	-214.929	1299.684	809.221	-269.232	1338.681	378.258	-89.232	1341.783	380.855	-358.388	1337.603	375.750	-189.447	1343.343	366.444	-255.084	1345.288	60.018	-77.708	1330.424	63.155	-377.457	1351.895	65.222	-137.270	1332.661	60.309	-313.866	1299.912	38.995	-112.513	1283.337	40.832	-338.621	1398.416	1115.287	-244.148	1452.889	981.721	-239.753	1322.674	1149.009	-245.493	1397.070	1127.930	-183.856	1403.485	1127.324	-299.204	1451.422	40.062	-99.179	1432.136	38.648	-357.462	1342.533	485.156	-21.151	1478.296	475.668	-335.115	1382.318	538.206	-91.756	1414.075	530.017	-274.188	1386.810	453.676	-99.013	1397.322	443.858	-275.100	1317.430	168.171	-15.245	1420.944	163.042	-371.887	1329.756	219.395	-78.993	1360.815	216.500	-344.171
	35	0.29167	1362.227	701.086	-227.879	1359.834	703.481	-165.056	1364.620	698.690	-290.703	1340.688	374.236	-139.530	1341.930	378.075	-308.470	1355.319	57.464	-109.562	1336.415	59.330	-343.723	1437.549	752.809	-226.982	1433.992	756.369	-133.613	1441.105	749.249	-320.352	1298.595	816.458	-214.856	1299.634	809.211	-269.235	1338.652	378.254	-89.232	1341.761	380.854	-358.393	1337.542	375.782	-189.494	1343.308	366.481	-255.114	1345.283	60.014	-77.703	1330.404	63.167	-377.478	1351.876	65.205	-137.294	1332.641	60.288	-313.884	1299.924	38.993	-112.508	1283.340	40.819	-338.622	1398.385	1115.311	-244.174	1452.869	981.748	-239.800	1322.658	1149.020	-245.481	1396.991	1127.925	-183.885	1403.496	1127.376	-299.211	1451.402	40.048	-99.171	1432.133	38.649	-357.462	1342.471	485.146	-21.154	1478.270	475.675	-335.125	1382.321	538.194	-91.772	1414.078	530.052	-274.226	1386.767	453.678	-99.037	1397.303	443.869	-275.133	1317.440	168.164	-15.251	1420.934	163.054	-371.896	1329.732	219.372	-79.017	1360.798	216.543	-344.230
